Note SOUND_M[] = {
    {NOTE_A4, 250}, {NOTE_C5, 150}, {NOTE_E5, 250}, {NOTE_G5, 150}, {NOTE_A5, 300},
    {NOTE_G5, 150}, {NOTE_E5, 150}, {NOTE_C5, 150}, {NOTE_A4, 250}, {0, 200},
    {NOTE_F4, 400}, {NOTE_A4, 200}, {NOTE_C5, 200}, {NOTE_D5, 300}, {NOTE_E5, 200},
    {NOTE_G5, 300}, {NOTE_A5, 400}, {0, 300},
    {NOTE_B4, 200}, {NOTE_D5, 150}, {NOTE_F5, 200}, {NOTE_G5, 150}, {NOTE_A5, 400},
    {NOTE_G5, 200}, {NOTE_F5, 200}, {NOTE_D5, 150}, {NOTE_B4, 200}, {0, 400},
    {NOTE_A4, 100}, {NOTE_B4, 100}, {NOTE_A4, 100}, {NOTE_B4, 100},
    {NOTE_A4, 100}, {NOTE_B4, 100}, {NOTE_A4, 200}, {0, 300},
    {NOTE_C5, 300}, {NOTE_E5, 300}, {NOTE_G5, 300}, {NOTE_B5, 400},
    {NOTE_A5, 300}, {NOTE_G5, 300}, {NOTE_E5, 300}, {NOTE_C5, 300},
    {NOTE_DS8, 400}, {NOTE_D8, 400}, {NOTE_CS8, 400}, {NOTE_C8, 400}, {NOTE_B7, 400}, {NOTE_AS7, 400},
    {NOTE_A7, 400}, {NOTE_GS7, 400}, {NOTE_G7, 400}, {NOTE_FS7, 400}, {NOTE_F7, 400}, {NOTE_E7, 400},
    {NOTE_DS7, 400}, {NOTE_D7, 400}, {NOTE_CS7, 400}, {NOTE_C7, 400}, {NOTE_B6, 400}, {NOTE_AS6, 400},
    {NOTE_A6, 400}, {NOTE_GS6, 400}, {NOTE_G6, 400}, {NOTE_FS6, 400}, {NOTE_F6, 400}, {NOTE_E6, 400},
    {NOTE_DS6, 400}, {NOTE_D6, 400}, {NOTE_CS6, 400}, {NOTE_C6, 400}, {NOTE_B5, 400}, {NOTE_AS5, 400},
    {NOTE_A5, 400}, {NOTE_GS5, 400}, {NOTE_G5, 400}, {NOTE_FS5, 400}, {NOTE_F5, 400}, {NOTE_E5, 400},
    {NOTE_DS5, 400}, {NOTE_D5, 400}, {NOTE_CS5, 400}, {NOTE_C5, 400}, {NOTE_B4, 400}, {NOTE_AS4, 400},
    {NOTE_A4, 400}, {NOTE_GS4, 400}, {NOTE_G4, 400}, {NOTE_FS4, 400}, {NOTE_F4, 400}, {NOTE_E4, 400},
    {NOTE_DS4, 400}, {NOTE_D4, 400}, {NOTE_CS4, 400}, {NOTE_C4, 400}, {NOTE_B3, 400}, {NOTE_AS3, 400},
    {NOTE_A3, 400}, {NOTE_GS3, 400}, {NOTE_G3, 400}, {NOTE_FS3, 400}, {NOTE_F3, 400}, {NOTE_E3, 400},
    {NOTE_DS3, 400}, {NOTE_D3, 400}, {NOTE_CS3, 400}, {NOTE_C3, 400}, {NOTE_B2, 400}, {NOTE_AS2, 400},
    {NOTE_A2, 400}, {NOTE_GS2, 400}, {NOTE_G2, 400}, {NOTE_FS2, 400}, {NOTE_F2, 400}, {NOTE_E2, 400},
    {NOTE_DS2, 400}, {NOTE_D2, 400}, {NOTE_CS2, 400}, {NOTE_C2, 400}, {NOTE_B1, 400}, {NOTE_AS1, 400},
     {NOTE_DS5, 500}, {NOTE_A4, 150}, {NOTE_FS5, 400}, {0, 200},
    {NOTE_GS5, 300}, {NOTE_DS6, 100}, {NOTE_C6, 600}, {0, 300},
    {NOTE_FS4, 200}, {NOTE_AS4, 200}, {NOTE_B4, 200}, {NOTE_A4, 200},
    {NOTE_GS4, 300}, {NOTE_DS5, 100}, {0, 150}, {NOTE_FS5, 400},
    {NOTE_D5, 700}, {NOTE_CS5, 150}, {NOTE_B4, 400}, {NOTE_AS4, 200},
    {NOTE_G4, 200}, {NOTE_DS4, 200}, {0, 250}, {NOTE_D4, 450},
    {NOTE_CS6, 250}, {NOTE_D6, 250}, {NOTE_DS6, 250}, {NOTE_E6, 250},
    {NOTE_F6, 250}, {NOTE_FS6, 250}, {NOTE_G6, 250}, {0, 400},
    {NOTE_A6, 600}, {NOTE_GS6, 300}, {NOTE_F6, 250}, {NOTE_DS6, 250},
    {NOTE_D6, 300}, {NOTE_CS6, 350}, {0, 500},
    {NOTE_A5, 700}, {NOTE_B5, 150}, {NOTE_C6, 200}, {NOTE_CS6, 200},
    {NOTE_D6, 200}, {0, 300}, {NOTE_E6, 600},
    {NOTE_F6, 700}, {NOTE_FS6, 150}, {NOTE_G6, 200}, {NOTE_GS6, 200},
    {NOTE_A6, 200}, {0, 300},
    {NOTE_DS5, 700}, {NOTE_C5, 200}, {NOTE_B4, 200}, {NOTE_AS4, 200},
    {NOTE_A4, 400}, {0, 400},
    {NOTE_E4, 700}, {NOTE_B3, 700}, {NOTE_C4, 700}, {NOTE_D4, 700},
    {NOTE_E4, 700}, {NOTE_E4, 700}, {NOTE_E4, 1400}, {0, 350},
    {NOTE_D4, 700}, {NOTE_D4, 700}, {NOTE_D4, 1400}, {0, 350},
    {NOTE_E4, 700}, {NOTE_G4, 700}, {NOTE_G4, 1400}, {0, 350},
    {NOTE_E4, 700}, {NOTE_B3, 700}, {NOTE_C4, 700}, {NOTE_D4, 700},
    {NOTE_E4, 700}, {NOTE_E4, 700}, {NOTE_E4, 700}, {NOTE_E4, 700},
    {NOTE_D4, 700}, {NOTE_D4, 700}, {NOTE_E4, 700}, {NOTE_D4, 700},
    {NOTE_C4, 1400}, {0, 700},
    {NOTE_G4, 700}, {NOTE_F4, 700}, {NOTE_E4, 700}, {NOTE_D4, 700},
    {NOTE_C4, 700}, {NOTE_D4, 700}, {NOTE_E4, 1400}, {0, 350},
    {NOTE_E4, 700}, {NOTE_F4, 700}, {NOTE_G4, 700}, {NOTE_A4, 700},
    {NOTE_B4, 1400}, {0, 700},
    {NOTE_C5, 700}, {NOTE_B4, 700}, {NOTE_A4, 700}, {NOTE_G4, 700},
    {NOTE_F4, 700}, {NOTE_E4, 700}, {NOTE_D4, 1400}, {0, 700},
    {NOTE_C4, 1000}, {NOTE_G3, 1000}, {NOTE_E3, 1000}, {NOTE_C3, 2000},
    {NOTE_E4, 400}, {NOTE_F4, 400}, {NOTE_G4, 400}, {NOTE_A4, 400},
    {NOTE_B4, 400}, {NOTE_C5, 400}, {NOTE_D5, 400}, {NOTE_E5, 800},
    {NOTE_G4, 300}, {NOTE_A4, 300}, {NOTE_B4, 300}, {NOTE_C5, 300},
    {NOTE_D5, 300}, {NOTE_E5, 300}, {NOTE_F5, 300}, {NOTE_G5, 600},
    {NOTE_E5, 700}, {NOTE_D5, 700}, {NOTE_C5, 700}, {NOTE_B4, 700},
    {NOTE_A4, 1400}, {0, 700},
    {NOTE_G4, 1000}, {NOTE_E4, 1000}, {NOTE_C4, 2000},
    {NOTE_E4, 1000}, {NOTE_B3, 1000}, {NOTE_C4, 2000},
    {NOTE_AS5, 1200}, {NOTE_B3, 1200}, {NOTE_C4, 1200}, {NOTE_D4, 1200},
    {NOTE_E4, 1200}, {NOTE_E4, 1200}, {NOTE_E4, 2400}, {0, 600},
    {NOTE_D4, 1200}, {NOTE_D4, 1200}, {NOTE_D4, 2400}, {0, 600},
    {NOTE_E4, 1200}, {NOTE_G4, 1200}, {NOTE_G4, 2400}, {0, 600},
    {NOTE_C4, 600}, {NOTE_E4, 300}, {NOTE_G4, 600}, {NOTE_B4, 300},
    {NOTE_C5, 600}, {NOTE_A4, 300}, {NOTE_F4, 400}, {NOTE_D4, 400},
    {NOTE_B3, 600}, {NOTE_G3, 300}, {NOTE_E3, 600}, {NOTE_C3, 300},
    {NOTE_C6, 700}, {NOTE_B5, 300}, {NOTE_G5, 500}, {NOTE_E5, 500},
    {NOTE_D5, 400}, {NOTE_B4, 400}, {NOTE_G4, 600}, {NOTE_F4, 400},
    {NOTE_A3, 500}, {NOTE_D3, 300}, {NOTE_F3, 600},
    {NOTE_E4, 300}, {NOTE_FS4, 300}, {NOTE_G4, 300}, {NOTE_GS4, 300}, {NOTE_A4, 600},
    {NOTE_DS7, 700}, {NOTE_B6, 300}, {NOTE_G6, 700}, {NOTE_C7, 500},
    {NOTE_F5, 600}, {NOTE_D5, 600}, {NOTE_B4, 600}, {NOTE_G4, 600},
    {NOTE_C4, 1000},
    {NOTE_C3, 40}, {NOTE_CS3, 30}, {NOTE_D3, 35}, {NOTE_DS3, 30},
    {NOTE_E3, 40}, {NOTE_F3, 30}, {NOTE_FS3, 35}, {NOTE_G3, 30},
    {NOTE_GS3, 40}, {NOTE_A3, 30}, {NOTE_AS3, 35}, {NOTE_B3, 30},
    {NOTE_C4, 40}, {NOTE_CS4, 30}, {NOTE_D4, 35}, {NOTE_DS4, 30},
    {NOTE_E4, 40}, {NOTE_F4, 30}, {NOTE_FS4, 35}, {NOTE_G4, 30},
    {NOTE_GS4, 40}, {NOTE_A4, 30}, {NOTE_AS4, 35}, {NOTE_B4, 30},
    {NOTE_C3, 40}, {NOTE_DS3, 40}, {NOTE_F3, 40}, {NOTE_GS3, 40},
    {NOTE_A4, 40}, {NOTE_CS5, 40}, {NOTE_E5, 40}, {NOTE_GS5, 40},
    {NOTE_A5, 40}, {NOTE_DS6, 40}, {NOTE_F6, 40}, {NOTE_GS6, 40},
    {NOTE_C3, 100}, {0, 50}, {NOTE_D3, 100}, {0, 50}, {NOTE_CS3, 100}, {0, 50}, {NOTE_B2, 100}, {0, 50},
    {NOTE_A2, 150}, {0, 75}, {NOTE_AS2, 100}, {0, 50}, {NOTE_G2, 100}, {0, 50}, {NOTE_F2, 100}, {0, 50},
    {NOTE_D2, 150}, {0, 75}, {NOTE_C2, 200}, {0, 100},
    {NOTE_D3, 100}, {0, 50}, {NOTE_CS3, 100}, {0, 50}, {NOTE_B2, 100}, {0, 50}, {NOTE_A2, 100}, {0, 50},
    {NOTE_GS2, 150}, {0, 75}, {NOTE_F2, 100}, {0, 50}, {NOTE_D2, 100}, {0, 50}, {NOTE_CS2, 100}, {0, 50},
    {NOTE_C2, 150}, {0, 75},
    {NOTE_B0, 400}, {NOTE_C1, 400}, {NOTE_CS1, 400}, {NOTE_D1, 400}, {NOTE_DS1, 400}, {NOTE_E1, 400},
    {NOTE_F1, 400}, {NOTE_FS1, 400}, {NOTE_G1, 400}, {NOTE_GS1, 400}, {NOTE_A1, 400}, {NOTE_AS1, 400},
    {NOTE_B1, 400}, {NOTE_C2, 400}, {NOTE_CS2, 400}, {NOTE_D2, 400}, {NOTE_DS2, 400}, {NOTE_E2, 400},
    {NOTE_F2, 400}, {NOTE_FS2, 400}, {NOTE_G2, 400}, {NOTE_GS2, 400}, {NOTE_A2, 400}, {NOTE_AS2, 400},
    {NOTE_B2, 400}, {NOTE_C3, 400}, {NOTE_CS3, 400}, {NOTE_D3, 400}, {NOTE_DS3, 400}, {NOTE_E3, 400},
    {NOTE_F3, 400}, {NOTE_FS3, 400}, {NOTE_G3, 400}, {NOTE_GS3, 400}, {NOTE_A3, 400}, {NOTE_AS3, 400},
    {NOTE_B3, 400}, {NOTE_C4, 400}, {NOTE_CS4, 400}, {NOTE_D4, 400}, {NOTE_DS4, 400}, {NOTE_E4, 400},
    {NOTE_F4, 400}, {NOTE_FS4, 400}, {NOTE_G4, 400}, {NOTE_GS4, 400}, {NOTE_A4, 400}, {NOTE_AS4, 400},
    {NOTE_B4, 400}, {NOTE_C5, 400}, {NOTE_CS5, 400}, {NOTE_D5, 400}, {NOTE_DS5, 400}, {NOTE_E5, 400},
    {NOTE_F5, 400}, {NOTE_FS5, 400}, {NOTE_G5, 400}, {NOTE_GS5, 400}, {NOTE_A5, 400}, {NOTE_AS5, 400},
    {NOTE_B5, 400}, {NOTE_C6, 400}, {NOTE_CS6, 400}, {NOTE_D6, 400}, {NOTE_DS6, 400}, {NOTE_E6, 400},
    {NOTE_F6, 400}, {NOTE_FS6, 400}, {NOTE_G6, 400}, {NOTE_GS6, 400}, {NOTE_A6, 400}, {NOTE_AS6, 400},
    {NOTE_B6, 400}, {NOTE_C7, 400}, {NOTE_CS7, 400}, {NOTE_D7, 400}, {NOTE_DS7, 400}, {NOTE_E7, 400},
    {NOTE_F7, 400}, {NOTE_FS7, 400}, {NOTE_G7, 400}, {NOTE_GS7, 400}, {NOTE_A7, 400}, {NOTE_AS7, 400},
    {NOTE_B7, 400}, {NOTE_C8, 400}, {NOTE_CS8, 400}, {NOTE_D8, 400}, {NOTE_DS8, 400},
    {NOTE_DS8, 400}, {NOTE_D8, 400}, {NOTE_CS8, 400}, {NOTE_C8, 400}, {NOTE_B7, 400}, {NOTE_AS7, 400},
    {337, 200}, {462, 600}, {1118, 150}, {74, 150}, {1953, 300}, 
{1172, 400}, {144, 400}, {921, 200}, {5208, 700}, {171, 400},
{1764, 200}, {369, 200}, {2978, 600}, {0, 250}, {83, 500},
{1882, 300}, {2023, 400}, {371, 500}, {0, 150}, {92, 600},
{727, 100}, {0, 700}, {1975, 250}, {2234, 150}, {172, 400},
{292, 700}, {3056, 700}, {435, 400}, {719, 400}, {241, 600},
{6610, 300}, {145, 200}, {3512, 700}, {0, 100}, {4596, 300},
{70, 600}, {57, 600}, {894, 250}, {48, 700}, {339, 400},
{291, 300}, {467, 600}, {6182, 300}, {104, 200}, {0, 300},
{487, 200}, {2678, 500}, {759, 250}, {80, 400}, {315, 200},
{751, 100}, {1140, 500}, {2132, 500}, {0, 500}, {161, 250},
{405, 100}, {20, 400}, {233, 600}, {458, 150}, {22, 200},
{631, 400}, {79, 200}, {756, 500}, {942, 700}, {146, 300},
{2128, 400}, {2938, 150}, {2317, 150}, {248, 600}, {257, 300},
{0, 100}, {119, 500}, {974, 300}, {370, 500}, {599, 600},
{83, 250}, {207, 400}, {9465, 700}, {62, 600}, {2079, 200},
{102, 150}, {845, 600}, {4302, 600}, {214, 700}, {1639, 150},
{46, 600}, {1214, 150}, {256, 600}, {1324, 300}, {4624, 500},
{468, 150}, {91, 200}, {7236, 400}, {544, 500}, {954, 700},
{2435, 700}, {105, 400}, {101, 200}, {1735, 400}, {0, 400},
{5235, 500}, {125, 400}, {55, 600}, {448, 300}, {275, 500},
{106, 150}, {6105, 400}, {4534, 200}, {39, 250}, {136, 400},
{0, 300}, {0, 600}, {0, 500}, {1486, 200}, {1884, 250},
{44, 600}, {131, 100}, {0, 700}, {1914, 150}, {66, 200},
{0, 150}, {4942, 250}, {84, 250}, {1123, 700}, {86, 700},
{3282, 150}, {2623, 200}, {361, 200}, {126, 200}, {45, 700},
{430, 700}, {59, 700}, {70, 600}, {2136, 150}, {3739, 150},
{453, 150}, {1717, 250}, {336, 500}, {185, 150}, {38, 150},
{261, 200}, {415, 200}, {3522, 300}, {222, 200}, {149, 200},
{924, 300}, {4034, 500}, {260, 400}, {7300, 500}, {2001, 250},
{3511, 100}, {0, 700}, {814, 300}, {0, 700}, {226, 600},
{152, 250}, {309, 100}, {8607, 150}, {1261, 400}, {1280, 150},
{2643, 300}, {0, 500}, {31, 700}, {5510, 150}, {3036, 500},
{1934, 300}, {0, 400}, {0, 500}, {635, 150}, {109, 600},   
{673, 300}, {217, 600}, {770, 500}, {240, 150}, {529, 600},
{5775, 600}, {644, 300}, {0, 700}, {85, 200}, {2024, 100},
{44, 700}, {307, 250}, {0, 500}, {9486, 500}, {130, 400},
{2845, 300}, {2908, 100}, {1225, 400}, {26, 600}, {167, 150},
{2635, 200}, {0, 200}, {4627, 200}, {6586, 150}, {1257, 100},
{1192, 250}, {63, 400}, {1455, 200}, {4381, 600}, {53, 600},
{841, 200}, {5117, 500}, {5550, 500}, {0, 150}, {195, 300},
{177, 700}, {0, 200}, {450, 500}, {2625, 400}, {498, 400},
{43, 500}, {0, 100}, {50, 150}, {0, 700}, {84, 200},
{117, 500}, {39, 200}, {1705, 400}, {44, 400}, {69, 200},
{767, 150}, {94, 400}, {947, 150}, {411, 200}, {770, 400},
{47, 500}, {9758, 200}, {511, 700}, {1956, 150}, {494, 250},
{86, 600}, {282, 150}, {4950, 600}, {101, 600}, {448, 200},
{1456, 500}, {271, 400}, {2618, 250}, {371, 250}, {51, 300},
{1038, 300}, {2662, 400}, {700, 700}, {3757, 200}, {6531, 700},
{5018, 600}, {42, 200}, {105, 150}, {4563, 300}, {2174, 200},
{2532, 500}, {187, 400}, {7154, 600}, {0, 500}, {594, 600},
{8399, 250}, {4706, 300}, {322, 100}, {0, 300}, {143, 300},
{168, 500}, {287, 400}, {0, 600}, {924, 400}, {0, 500},
{1655, 100}, {578, 400}, {90, 600}, {188, 200}, {102, 100},
{110, 200}, {1508, 150}, {62, 200}, {4679, 700}, {0, 500},
{1957, 700}, {20, 200}, {1233, 600}, {1205, 500}, {140, 150},
{4825, 400}, {259, 150}, {64, 500}, {227, 500}, {0, 250},
{1917, 100}, {370, 300}, {246, 400}, {754, 300}, {7071, 700},
{7802, 500}, {0, 250}, {1185, 200}, {6778, 250}, {557, 700},
{1671, 500}, {0, 500}, {169, 600}, {3667, 300}, {2855, 700},
{2100, 100}, {6417, 700}, {1433, 250}, {0, 400}, {2088, 300},
{178, 500}, {2411, 700}, {88, 150}, {2715, 100}, {2062, 250},
{161, 500}, {281, 600}, {3134, 400}, {8116, 300}, {1721, 700},
{10478, 100}, {1591, 200}, {0, 400}, {677, 200}, {79, 250},
{187, 600}, {2363, 250}, {402, 250}, {240, 250}, {1814, 250},
{0, 600}, {0, 500}, {0, 200}, {65, 250}, {4554, 600},
{115, 200}, {218, 300}, {396, 150}, {0, 700}, {458, 150},   
{708, 100}, {310, 600}, {50, 300}, {304, 250}, {0, 150},
{2857, 150}, {447, 100}, {419, 300}, {136, 250}, {1896, 400},
{0, 250}, {7764, 100}, {721, 500}, {0, 400}, {130, 700},
{0, 400}, {93, 300}, {0, 200}, {178, 700}, {2280, 100},
{106, 700}, {81, 100}, {0, 150}, {1299, 300}, {483, 300},
{913, 300}, {131, 300}, {1239, 250}, {78, 600}, {535, 700},
{0, 250}, {3512, 150}, {47, 100}, {985, 400}, {316, 500},
{12089, 600}, {721, 200}, {1590, 100}, {1742, 300}, {622, 200},
{785, 250}, {88, 250}, {2848, 250}, {134, 250}, {132, 500},
{112, 700}, {101, 300}, {6901, 700}, {7816, 100}, {122, 300},
{0, 500}, {455, 500}, {2607, 700}, {371, 500}, {1750, 600},
{27, 250}, {92, 400}, {69, 400}, {658, 300}, {4879, 200},
{3125, 600}, {83, 200}, {7484, 600}, {6301, 200}, {842, 300},
{84, 500}, {203, 300}, {344, 100}, {628, 400}, {851, 500},
{2120, 200}, {2556, 400}, {69, 600}, {67, 500}, {78, 400},
{0, 300}, {3143, 150}, {2532, 250}, {380, 300}, {3514, 200},
{188, 300}, {3718, 250}, {553, 700}, {1292, 250}, {0, 250},
{3334, 400}, {1243, 300}, {41, 600}, {358, 500}, {1082, 500},
{1438, 400}, {603, 250}, {0, 250}, {62, 100}, {9161, 700},
{78, 500}, {0, 150}, {90, 150}, {0, 400}, {562, 400},
{520, 600}, {112, 700}, {4031, 500}, {6419, 700}, {172, 500},
{228, 500}, {1051, 150}, {789, 400}, {0, 300}, {0, 250},
{4619, 300}, {527, 200}, {77, 250}, {141, 100}, {80, 500},
{0, 250}, {174, 200}, {1700, 300}, {0, 200}, {8486, 250},
{327, 100}, {5267, 600}, {46, 150}, {254, 700}, {563, 250},
{257, 300}, {0, 150}, {144, 300}, {227, 600}, {88, 250},
{138, 200}, {299, 400}, {0, 600}, {734, 100}, {4978, 150},    
{44, 250}, {2792, 150}, {863, 200}, {194, 150}, {0, 100},     
{79, 300}, {269, 500}, {249, 500}, {90, 150}, {434, 700},
{150, 150}, {661, 300}, {229, 500}, {85, 250}, {142, 600},
{1328, 250}, {1475, 600}, {220, 500}, {5922, 250}, {374, 100},
{134, 700}, {120, 250}, {7145, 500}, {4068, 500}, {4155, 200},
{31, 600}, {1075, 300}, {3599, 100}, {225, 150}, {2649, 100},
{3010, 500}, {132, 400}, {156, 250}, {78, 100}, {982, 200},
{221, 400}, {138, 400}, {133, 600}, {0, 500}, {564, 150},
{138, 600}, {3490, 100}, {38, 300}, {180, 600}, {888, 150},
{5326, 150}, {0, 200}, {10316, 300}, {0, 700}, {5562, 500},
{2897, 100}, {239, 300}, {1508, 400}, {2567, 600}, {72, 600},
{257, 300}, {0, 150}, {144, 300}, {227, 600}, {88, 250},
{186, 250}, {78, 200}, {0, 600}, {2609, 200}, {3923, 300},
{46, 100}, {0, 400}, {111, 700}, {564, 700}, {214, 250},
{0, 200}, {5352, 150}, {139, 100}, {0, 150}, {313, 600},
{201, 700}, {2705, 200}, {4029, 300}, {1630, 100}, {2656, 700},
{3039, 400}, {2464, 500}, {108, 300}, {5532, 600}, {550, 700},
{0, 200}, {565, 300}, {34, 400}, {52, 200}, {381, 400},
{103, 250}, {7409, 150}, {1715, 200}, {2003, 250}, {5820, 250},
{118, 400}, {206, 200}, {2557, 600}, {2043, 500}, {148, 250},
{35, 100}, {1749, 200}, {55, 300}, {720, 500}, {425, 500},
{375, 700}, {346, 200}, {1163, 300}, {261, 300}, {46, 250},

};
